<svg xmlns="http://www.w3.org/2000/svg" viewBox="0 0 512 512">
  <defs>
    <linearGradient id="bg" x1="0%" y1="0%" x2="100%" y2="100%">
      <stop offset="0%" style="stop-color:#f97316"/>
      <stop offset="100%" style="stop-color:#ea580c"/>
    </linearGradient>
  </defs>
  
  <!-- Background -->
  <rect width="512" height="512" rx="100" fill="url(#bg)"/>
  
  <!-- Plate -->
  <ellipse cx="256" cy="280" rx="140" ry="35" fill="#fff" opacity="0.3"/>
  <ellipse cx="256" cy="270" rx="130" ry="30" fill="#fff"/>
  <ellipse cx="256" cy="265" rx="100" ry="22" fill="#f5f5f5"/>
  
  <!-- Fork -->
  <g fill="#fff">
    <rect x="120" y="140" width="8" height="100" rx="4"/>
    <rect x="135" y="140" width="8" height="100" rx="4"/>
    <rect x="150" y="140" width="8" height="100" rx="4"/>
    <rect x="165" y="140" width="8" height="100" rx="4"/>
    <rect x="120" y="230" width="53" height="20" rx="5"/>
    <rect x="138" y="240" width="17" height="80" rx="5"/>
  </g>
  
  <!-- Knife -->
  <g fill="#fff">
    <path d="M360 140 L380 140 L380 220 C380 230 370 240 360 240 L360 140Z"/>
    <rect x="362" y="230" width="15" height="90" rx="5"/>
  </g>
  
  <!-- POS text -->
  <text x="256" y="400" text-anchor="middle" fill="#fff" font-family="Arial Black, sans-serif" font-size="60" font-weight="800">POS</text>
</svg>
