<svg xmlns="http://www.w3.org/2000/svg" viewBox="0 0 400 120">
  <defs>
    <linearGradient id="bgGrad" x1="0%" y1="0%" x2="100%" y2="100%">
      <stop offset="0%" style="stop-color:#3B82F6"/>
      <stop offset="100%" style="stop-color:#2563EB"/>
    </linearGradient>
  </defs>
  
  <!-- Dark background -->
  <rect x="0" y="0" width="400" height="120" fill="#1E293B"/>
  
  <!-- Icon -->
  <g transform="translate(10, 10)">
    <rect x="0" y="0" width="100" height="100" rx="22" fill="url(#bgGrad)"/>
    
    <!-- M letter stylized -->
    <path d="M22 72 L22 28 L36 28 L50 50 L64 28 L78 28 L78 72 L66 72 L66 46 L54 65 L46 65 L34 46 L34 72 Z" fill="white"/>
    
    <!-- Lab bubbles / molecules -->
    <circle cx="76" cy="22" r="6" fill="#60A5FA"/>
    <circle cx="85" cy="32" r="4" fill="#93C5FD"/>
    <circle cx="82" cy="18" r="3" fill="#BFDBFE"/>
    
    <!-- Small accent dots at bottom -->
    <circle cx="26" cy="80" r="3" fill="#60A5FA"/>
    <circle cx="36" cy="82" r="2.5" fill="#93C5FD"/>
    <circle cx="45" cy="80" r="2" fill="#BFDBFE"/>
  </g>
  
  <!-- Text in white -->
  <text x="125" y="58" font-family="Arial, Helvetica, sans-serif" font-size="48" font-weight="bold" fill="white">
    MenuLab
  </text>
  <text x="127" y="82" font-family="Arial, sans-serif" font-size="14" fill="#94A3B8" letter-spacing="2">CRM SYSTEM</text>
</svg>
