<svg xmlns="http://www.w3.org/2000/svg" viewBox="0 0 400 120">
  <!-- Icon -->
  <g transform="translate(10, 10)">
    <rect x="0" y="0" width="100" height="100" rx="22" fill="white"/>
    
    <!-- P letter -->
    <path d="M27 20 L27 80 L42 80 L42 58 L57 58 C73 58 81 47 81 37 C81 27 73 20 57 20 Z M42 32 L54 32 C63 32 68 35 68 40 C68 45 63 48 54 48 L42 48 Z" fill="#1E40AF"/>
    
    <!-- Three dots -->
    <circle cx="34" cy="66" r="5" fill="#3B82F6"/>
    <circle cx="34" cy="78" r="4" fill="#60A5FA"/>
    <circle cx="46" cy="78" r="3.5" fill="#93C5FD"/>
  </g>
  
  <!-- Text -->
  <text x="125" y="58" font-family="Arial, Helvetica, sans-serif" font-size="48" font-weight="bold" fill="white">PosLab</text>
  <text x="127" y="82" font-family="Arial, sans-serif" font-size="14" fill="white" fill-opacity="0.7" letter-spacing="2">CRM SYSTEM</text>
</svg>
